<mxfile host="app.diagrams.net" agent="Mozilla/5.0 (Windows NT 10.0; Win64; x64) AppleWebKit/537.36 (KHTML, like Gecko) Chrome/138.0.0.0 Safari/537.36" version="27.1.6">
  <diagram name="Página-1" id="X9GH_2KWw6a6L-SMquIP">
    <mxGraphModel grid="1" page="1" gridSize="10" guides="1" tooltips="1" connect="1" arrows="1" fold="1" pageScale="1" pageWidth="850" pageHeight="1100" math="0" shadow="0">
      <root>
        <mxCell id="0" />
        <mxCell id="1" parent="0" />
        <mxCell id="rVRQHc-W0DcGLHyyKP3M-2" value="Cu0027 Seleccionar comentarios públicos" style="swimlane;childLayout=stackLayout;resizeParent=1;resizeParentMax=0;startSize=20;horizontal=0;horizontalStack=1;fillColor=none;" vertex="1" parent="1">
          <mxGeometry x="380" y="340" width="1050" height="1120" as="geometry">
            <mxRectangle x="200" y="80" width="40" height="50" as="alternateBounds" />
          </mxGeometry>
        </mxCell>
        <mxCell id="rVRQHc-W0DcGLHyyKP3M-36" style="edgeStyle=orthogonalEdgeStyle;rounded=0;orthogonalLoop=1;jettySize=auto;html=1;exitX=0.5;exitY=1;exitDx=0;exitDy=0;entryX=0.5;entryY=0;entryDx=0;entryDy=0;strokeColor=#FF0000;" edge="1" parent="rVRQHc-W0DcGLHyyKP3M-2" source="rVRQHc-W0DcGLHyyKP3M-19" target="rVRQHc-W0DcGLHyyKP3M-35">
          <mxGeometry relative="1" as="geometry" />
        </mxCell>
        <mxCell id="rVRQHc-W0DcGLHyyKP3M-38" style="edgeStyle=orthogonalEdgeStyle;rounded=0;orthogonalLoop=1;jettySize=auto;html=1;exitX=0.5;exitY=1;exitDx=0;exitDy=0;strokeColor=#FF0000;" edge="1" parent="rVRQHc-W0DcGLHyyKP3M-2" source="rVRQHc-W0DcGLHyyKP3M-35" target="rVRQHc-W0DcGLHyyKP3M-37">
          <mxGeometry relative="1" as="geometry" />
        </mxCell>
        <mxCell id="rVRQHc-W0DcGLHyyKP3M-3" value="Administrador" style="swimlane;startSize=20;fillColor=none;" vertex="1" parent="rVRQHc-W0DcGLHyyKP3M-2">
          <mxGeometry x="20" width="380" height="1120" as="geometry" />
        </mxCell>
        <mxCell id="rVRQHc-W0DcGLHyyKP3M-27" style="edgeStyle=orthogonalEdgeStyle;rounded=0;orthogonalLoop=1;jettySize=auto;html=1;entryX=0.5;entryY=0;entryDx=0;entryDy=0;strokeColor=#FF0000;" edge="1" parent="rVRQHc-W0DcGLHyyKP3M-3" target="gP1TjN6N4NOIp5luk_Jq-3">
          <mxGeometry relative="1" as="geometry">
            <mxPoint x="195" y="60" as="sourcePoint" />
            <mxPoint x="195" y="130" as="targetPoint" />
          </mxGeometry>
        </mxCell>
        <mxCell id="rVRQHc-W0DcGLHyyKP3M-4" value="" style="ellipse;html=1;shape=startState;fillColor=#000000;strokeColor=#ff0000;fillStyle=auto;" vertex="1" parent="rVRQHc-W0DcGLHyyKP3M-3">
          <mxGeometry x="180" y="30" width="30" height="30" as="geometry" />
        </mxCell>
        <mxCell id="rVRQHc-W0DcGLHyyKP3M-5" style="edgeStyle=orthogonalEdgeStyle;rounded=0;orthogonalLoop=1;jettySize=auto;html=1;entryX=0;entryY=0.5;entryDx=0;entryDy=0;strokeColor=#FF0000;" edge="1" parent="rVRQHc-W0DcGLHyyKP3M-3">
          <mxGeometry relative="1" as="geometry">
            <Array as="points">
              <mxPoint x="106" y="871" />
              <mxPoint x="106" y="652" />
            </Array>
            <mxPoint x="135" y="652" as="targetPoint" />
          </mxGeometry>
        </mxCell>
        <mxCell id="rVRQHc-W0DcGLHyyKP3M-35" value="Presiona una imagen disponible&amp;nbsp;" style="rounded=1;whiteSpace=wrap;html=1;arcSize=40;fontColor=#000000;fillColor=#ffffc0;strokeColor=#ff0000;" vertex="1" parent="rVRQHc-W0DcGLHyyKP3M-3">
          <mxGeometry x="90" y="270" width="210" height="50" as="geometry" />
        </mxCell>
        <mxCell id="rVRQHc-W0DcGLHyyKP3M-57" value="&lt;font face=&quot;Times New Roman&quot;&gt;&lt;span style=&quot;font-size: 13.3333px; white-space-collapse: preserve; background-color: rgb(255, 255, 255);&quot;&gt;Pulsar el botón &quot;Publicar&quot;&lt;/span&gt;&lt;/font&gt;" style="rounded=1;whiteSpace=wrap;html=1;arcSize=40;fontColor=#000000;fillColor=#ffffc0;strokeColor=#ff0000;" vertex="1" parent="rVRQHc-W0DcGLHyyKP3M-3">
          <mxGeometry x="160" y="740" width="180" height="79" as="geometry" />
        </mxCell>
        <mxCell id="rVRQHc-W0DcGLHyyKP3M-58" value="&lt;font face=&quot;Times New Roman&quot;&gt;&lt;span style=&quot;font-size: 13.3333px; white-space-collapse: preserve; background-color: rgb(255, 255, 255);&quot;&gt;Selecciona el botón &quot;Rechazar&quot;&lt;/span&gt;&lt;/font&gt;" style="rounded=1;whiteSpace=wrap;html=1;arcSize=40;fontColor=#000000;fillColor=#ffffc0;strokeColor=#ff0000;" vertex="1" parent="rVRQHc-W0DcGLHyyKP3M-3">
          <mxGeometry x="160" y="890" width="180" height="79" as="geometry" />
        </mxCell>
        <mxCell id="gP1TjN6N4NOIp5luk_Jq-3" value="Acceder al apartado de &quot;Galería de eventos&quot;" style="rhombus;whiteSpace=wrap;html=1;fontColor=#000000;fillColor=#ffffc0;strokeColor=#ff0000;" vertex="1" parent="rVRQHc-W0DcGLHyyKP3M-3">
          <mxGeometry x="112.5" y="120" width="165" height="60" as="geometry" />
        </mxCell>
        <mxCell id="gP1TjN6N4NOIp5luk_Jq-6" style="edgeStyle=orthogonalEdgeStyle;rounded=0;orthogonalLoop=1;jettySize=auto;html=1;exitX=0.5;exitY=1;exitDx=0;exitDy=0;" edge="1" parent="rVRQHc-W0DcGLHyyKP3M-3" source="gP1TjN6N4NOIp5luk_Jq-3" target="gP1TjN6N4NOIp5luk_Jq-3">
          <mxGeometry relative="1" as="geometry" />
        </mxCell>
        <mxCell id="gP1TjN6N4NOIp5luk_Jq-8" value="Da click al botón &quot;Seleccionar comentario&quot;" style="rounded=1;whiteSpace=wrap;html=1;arcSize=40;fontColor=#000000;fillColor=#ffffc0;strokeColor=#ff0000;" vertex="1" parent="rVRQHc-W0DcGLHyyKP3M-3">
          <mxGeometry x="112.5" y="540" width="180" height="79" as="geometry" />
        </mxCell>
        <mxCell id="rVRQHc-W0DcGLHyyKP3M-39" style="edgeStyle=orthogonalEdgeStyle;rounded=0;orthogonalLoop=1;jettySize=auto;html=1;exitX=0.5;exitY=1;exitDx=0;exitDy=0;strokeColor=#FF0000;entryX=0.5;entryY=0;entryDx=0;entryDy=0;" edge="1" parent="rVRQHc-W0DcGLHyyKP3M-2" source="rVRQHc-W0DcGLHyyKP3M-37" target="gP1TjN6N4NOIp5luk_Jq-8">
          <mxGeometry relative="1" as="geometry">
            <mxPoint x="215.07692307692287" y="520.0634174985316" as="targetPoint" />
          </mxGeometry>
        </mxCell>
        <mxCell id="rVRQHc-W0DcGLHyyKP3M-59" style="edgeStyle=orthogonalEdgeStyle;rounded=0;orthogonalLoop=1;jettySize=auto;html=1;exitX=0;exitY=0.5;exitDx=0;exitDy=0;entryX=1;entryY=0.5;entryDx=0;entryDy=0;fillColor=none;strokeColor=#FF0000;" edge="1" parent="rVRQHc-W0DcGLHyyKP3M-2" source="rVRQHc-W0DcGLHyyKP3M-45" target="rVRQHc-W0DcGLHyyKP3M-57">
          <mxGeometry relative="1" as="geometry" />
        </mxCell>
        <mxCell id="rVRQHc-W0DcGLHyyKP3M-62" style="edgeStyle=orthogonalEdgeStyle;rounded=0;orthogonalLoop=1;jettySize=auto;html=1;exitX=0.5;exitY=1;exitDx=0;exitDy=0;entryX=0;entryY=0.5;entryDx=0;entryDy=0;strokeColor=#FF0000;" edge="1" parent="rVRQHc-W0DcGLHyyKP3M-2" source="rVRQHc-W0DcGLHyyKP3M-57" target="rVRQHc-W0DcGLHyyKP3M-60">
          <mxGeometry relative="1" as="geometry" />
        </mxCell>
        <mxCell id="rVRQHc-W0DcGLHyyKP3M-63" style="edgeStyle=orthogonalEdgeStyle;rounded=0;orthogonalLoop=1;jettySize=auto;html=1;exitX=1;exitY=0.5;exitDx=0;exitDy=0;entryX=0;entryY=0.5;entryDx=0;entryDy=0;strokeColor=#FF0000;" edge="1" parent="rVRQHc-W0DcGLHyyKP3M-2" source="rVRQHc-W0DcGLHyyKP3M-58" target="rVRQHc-W0DcGLHyyKP3M-61">
          <mxGeometry relative="1" as="geometry" />
        </mxCell>
        <mxCell id="rVRQHc-W0DcGLHyyKP3M-65" style="edgeStyle=orthogonalEdgeStyle;rounded=0;orthogonalLoop=1;jettySize=auto;html=1;exitX=1;exitY=0.5;exitDx=0;exitDy=0;entryX=0.5;entryY=1;entryDx=0;entryDy=0;strokeColor=#FF0000;" edge="1" parent="rVRQHc-W0DcGLHyyKP3M-2" source="rVRQHc-W0DcGLHyyKP3M-54" target="rVRQHc-W0DcGLHyyKP3M-58">
          <mxGeometry relative="1" as="geometry">
            <Array as="points">
              <mxPoint x="980" y="755" />
              <mxPoint x="980" y="1080" />
              <mxPoint x="270" y="1080" />
            </Array>
          </mxGeometry>
        </mxCell>
        <mxCell id="gP1TjN6N4NOIp5luk_Jq-4" value="si" style="edgeStyle=orthogonalEdgeStyle;html=1;align=left;verticalAlign=bottom;endArrow=open;endSize=8;strokeColor=#ff0000;rounded=0;entryX=0;entryY=0.5;entryDx=0;entryDy=0;" edge="1" parent="rVRQHc-W0DcGLHyyKP3M-2" source="gP1TjN6N4NOIp5luk_Jq-3" target="rVRQHc-W0DcGLHyyKP3M-19">
          <mxGeometry x="-1" relative="1" as="geometry">
            <mxPoint x="360" y="160" as="targetPoint" />
          </mxGeometry>
        </mxCell>
        <mxCell id="gP1TjN6N4NOIp5luk_Jq-5" value="no" style="edgeStyle=orthogonalEdgeStyle;html=1;align=left;verticalAlign=top;endArrow=open;endSize=8;strokeColor=#ff0000;rounded=0;entryX=0;entryY=0.5;entryDx=0;entryDy=0;" edge="1" parent="rVRQHc-W0DcGLHyyKP3M-2" source="gP1TjN6N4NOIp5luk_Jq-3" target="rVRQHc-W0DcGLHyyKP3M-21">
          <mxGeometry x="-1" relative="1" as="geometry">
            <mxPoint x="220" y="240" as="targetPoint" />
            <Array as="points">
              <mxPoint x="90" y="150" />
              <mxPoint x="90" y="1019" />
            </Array>
          </mxGeometry>
        </mxCell>
        <mxCell id="gP1TjN6N4NOIp5luk_Jq-9" style="edgeStyle=orthogonalEdgeStyle;rounded=0;orthogonalLoop=1;jettySize=auto;html=1;entryX=0;entryY=0.5;entryDx=0;entryDy=0;" edge="1" parent="rVRQHc-W0DcGLHyyKP3M-2" source="gP1TjN6N4NOIp5luk_Jq-8" target="rVRQHc-W0DcGLHyyKP3M-20">
          <mxGeometry relative="1" as="geometry" />
        </mxCell>
        <mxCell id="rVRQHc-W0DcGLHyyKP3M-17" value="Sistema" style="swimlane;startSize=20;" vertex="1" parent="rVRQHc-W0DcGLHyyKP3M-2">
          <mxGeometry x="400" width="650" height="1120" as="geometry" />
        </mxCell>
        <mxCell id="rVRQHc-W0DcGLHyyKP3M-19" value="Muestra el apartado de imagénes" style="rounded=1;whiteSpace=wrap;html=1;arcSize=40;fontColor=#000000;fillColor=#ffffc0;strokeColor=#ff0000;" vertex="1" parent="rVRQHc-W0DcGLHyyKP3M-17">
          <mxGeometry x="300" y="110.5" width="180" height="79" as="geometry" />
        </mxCell>
        <mxCell id="rVRQHc-W0DcGLHyyKP3M-20" value="&lt;font face=&quot;Times New Roman&quot;&gt;&lt;span style=&quot;font-size: 13.3333px; white-space-collapse: preserve; background-color: rgb(255, 255, 255);&quot;&gt;Se muestran listado de comentarios&lt;/span&gt;&lt;/font&gt;" style="rounded=1;whiteSpace=wrap;html=1;arcSize=40;fontColor=#000000;fillColor=#ffffc0;strokeColor=#ff0000;" vertex="1" parent="rVRQHc-W0DcGLHyyKP3M-17">
          <mxGeometry x="290" y="540" width="180" height="79" as="geometry" />
        </mxCell>
        <mxCell id="rVRQHc-W0DcGLHyyKP3M-44" style="edgeStyle=orthogonalEdgeStyle;rounded=0;orthogonalLoop=1;jettySize=auto;html=1;exitX=0.5;exitY=1;exitDx=0;exitDy=0;entryX=0.5;entryY=0;entryDx=0;entryDy=0;strokeColor=#FF0000;" edge="1" parent="rVRQHc-W0DcGLHyyKP3M-17" source="rVRQHc-W0DcGLHyyKP3M-20" target="rVRQHc-W0DcGLHyyKP3M-43">
          <mxGeometry relative="1" as="geometry" />
        </mxCell>
        <mxCell id="rVRQHc-W0DcGLHyyKP3M-21" value="" style="ellipse;html=1;shape=endState;fillColor=#000000;strokeColor=#ff0000;" vertex="1" parent="rVRQHc-W0DcGLHyyKP3M-17">
          <mxGeometry x="425" y="1004" width="30" height="30" as="geometry" />
        </mxCell>
        <mxCell id="rVRQHc-W0DcGLHyyKP3M-37" value="Muestra la imagen con su comentario" style="rounded=1;whiteSpace=wrap;html=1;arcSize=40;fontColor=#000000;fillColor=#ffffc0;strokeColor=#ff0000;" vertex="1" parent="rVRQHc-W0DcGLHyyKP3M-17">
          <mxGeometry x="300" y="370" width="180" height="79" as="geometry" />
        </mxCell>
        <mxCell id="rVRQHc-W0DcGLHyyKP3M-55" style="edgeStyle=orthogonalEdgeStyle;rounded=0;orthogonalLoop=1;jettySize=auto;html=1;exitX=0.5;exitY=1;exitDx=0;exitDy=0;entryX=0.5;entryY=0;entryDx=0;entryDy=0;strokeColor=#FF0000;" edge="1" parent="rVRQHc-W0DcGLHyyKP3M-17" source="rVRQHc-W0DcGLHyyKP3M-43" target="rVRQHc-W0DcGLHyyKP3M-45">
          <mxGeometry relative="1" as="geometry" />
        </mxCell>
        <mxCell id="rVRQHc-W0DcGLHyyKP3M-56" style="edgeStyle=orthogonalEdgeStyle;rounded=0;orthogonalLoop=1;jettySize=auto;html=1;exitX=0.5;exitY=1;exitDx=0;exitDy=0;entryX=0.5;entryY=0;entryDx=0;entryDy=0;strokeColor=#FF0000;" edge="1" parent="rVRQHc-W0DcGLHyyKP3M-17" source="rVRQHc-W0DcGLHyyKP3M-43" target="rVRQHc-W0DcGLHyyKP3M-54">
          <mxGeometry relative="1" as="geometry" />
        </mxCell>
        <mxCell id="rVRQHc-W0DcGLHyyKP3M-43" value="" style="rounded=0;whiteSpace=wrap;html=1;strokeColor=#FF0000;fillColor=#FF0000;" vertex="1" parent="rVRQHc-W0DcGLHyyKP3M-17">
          <mxGeometry x="265" y="670" width="230" height="10" as="geometry" />
        </mxCell>
        <mxCell id="rVRQHc-W0DcGLHyyKP3M-45" value="&lt;font face=&quot;Times New Roman&quot;&gt;&lt;span style=&quot;font-size: 13.3333px; white-space-collapse: preserve; background-color: rgb(255, 255, 255);&quot;&gt;Publicar&lt;/span&gt;&lt;/font&gt;" style="rounded=1;whiteSpace=wrap;html=1;arcSize=40;fontColor=#000000;fillColor=#ffffc0;strokeColor=#ff0000;" vertex="1" parent="rVRQHc-W0DcGLHyyKP3M-17">
          <mxGeometry x="290" y="740" width="80" height="30" as="geometry" />
        </mxCell>
        <mxCell id="rVRQHc-W0DcGLHyyKP3M-54" value="&lt;font face=&quot;Times New Roman&quot;&gt;&lt;span style=&quot;font-size: 13.3333px; white-space-collapse: preserve; background-color: rgb(255, 255, 255);&quot;&gt;Rechazar&lt;/span&gt;&lt;/font&gt;" style="rounded=1;whiteSpace=wrap;html=1;arcSize=40;fontColor=#000000;fillColor=#ffffc0;strokeColor=#ff0000;" vertex="1" parent="rVRQHc-W0DcGLHyyKP3M-17">
          <mxGeometry x="400" y="740" width="80" height="30" as="geometry" />
        </mxCell>
        <mxCell id="rVRQHc-W0DcGLHyyKP3M-70" style="edgeStyle=orthogonalEdgeStyle;rounded=0;orthogonalLoop=1;jettySize=auto;html=1;exitX=1;exitY=0.5;exitDx=0;exitDy=0;strokeColor=#FF0000;" edge="1" parent="rVRQHc-W0DcGLHyyKP3M-17" source="rVRQHc-W0DcGLHyyKP3M-60">
          <mxGeometry relative="1" as="geometry">
            <mxPoint x="440" y="1000" as="targetPoint" />
          </mxGeometry>
        </mxCell>
        <mxCell id="rVRQHc-W0DcGLHyyKP3M-60" value="&lt;font face=&quot;Times New Roman&quot;&gt;&lt;span style=&quot;font-size: 13.3333px; white-space-collapse: preserve; background-color: rgb(255, 255, 255);&quot;&gt;Publica el comentaio&lt;/span&gt;&lt;/font&gt;" style="rounded=1;whiteSpace=wrap;html=1;arcSize=40;fontColor=#000000;fillColor=#ffffc0;strokeColor=#ff0000;" vertex="1" parent="rVRQHc-W0DcGLHyyKP3M-17">
          <mxGeometry x="290" y="810" width="180" height="30" as="geometry" />
        </mxCell>
        <mxCell id="rVRQHc-W0DcGLHyyKP3M-69" style="edgeStyle=orthogonalEdgeStyle;rounded=0;orthogonalLoop=1;jettySize=auto;html=1;exitX=1;exitY=0.5;exitDx=0;exitDy=0;entryX=1;entryY=0.5;entryDx=0;entryDy=0;strokeColor=#FF0000;" edge="1" parent="rVRQHc-W0DcGLHyyKP3M-17" source="rVRQHc-W0DcGLHyyKP3M-61" target="rVRQHc-W0DcGLHyyKP3M-21">
          <mxGeometry relative="1" as="geometry">
            <Array as="points">
              <mxPoint x="490" y="870" />
              <mxPoint x="490" y="1019" />
            </Array>
          </mxGeometry>
        </mxCell>
        <mxCell id="rVRQHc-W0DcGLHyyKP3M-61" value="&lt;font face=&quot;Times New Roman&quot;&gt;&lt;span style=&quot;font-size: 13.3333px; white-space-collapse: preserve; background-color: rgb(255, 255, 255);&quot;&gt;Se descartará y eliminará el comentario&lt;/span&gt;&lt;/font&gt;" style="rounded=1;whiteSpace=wrap;html=1;arcSize=40;fontColor=#000000;fillColor=#ffffc0;strokeColor=#ff0000;" vertex="1" parent="rVRQHc-W0DcGLHyyKP3M-17">
          <mxGeometry x="290" y="850" width="180" height="40" as="geometry" />
        </mxCell>
      </root>
    </mxGraphModel>
  </diagram>
</mxfile>
